<svg xmlns="http://www.w3.org/2000/svg" height="569" version="1.1" viewBox="0 0 1091 569"><rect style="fill:#add8e6;stroke:#000;stroke-width:1" width="552" height="25" x="1" y="1"/><text style="fill:#000" x="7" y="18" font-family="Arial" font-size="14" font-weight="bold">IPython -- An enhanced Interactive Python - Quick Reference Card</text><rect style="fill:#fff;stroke:#000;stroke-width:1" width="552" height="8" x="1" y="26"/><rect style="fill:#fff;stroke:#000;stroke-width:1" width="552" height="17" x="1" y="34"/><text style="fill:#000" x="11" y="46" font-family="Arial" font-size="12" font-weight="normal">ipython</text><text style="fill:#000" x="181" y="46" font-family="Arial" font-size="12" font-weight="normal">Open IPython terminal console</text><line style="stroke:#000;stroke-width:1" x1="170" x2="170" y1="34" y2="51"/><rect style="fill:#fff;stroke:#000;stroke-width:1" width="552" height="17" x="1" y="51"/><text style="fill:#000" x="11" y="63" font-family="Arial" font-size="12" font-weight="normal">juypter console</text><text style="fill:#000" x="181" y="63" font-family="Arial" font-size="12" font-weight="normal">Open terminal console (4.0 and later)</text><line style="stroke:#000;stroke-width:1" x1="170" x2="170" y1="51" y2="68"/><rect style="fill:#fff;stroke:#000;stroke-width:1" width="552" height="17" x="1" y="68"/><text style="fill:#000" x="11" y="80" font-family="Arial" font-size="12" font-weight="normal">ipython qtconsole</text><text style="fill:#000" x="181" y="80" font-family="Arial" font-size="12" font-weight="normal">Open IPython qtconsole</text><line style="stroke:#000;stroke-width:1" x1="170" x2="170" y1="68" y2="85"/><rect style="fill:#fff;stroke:#000;stroke-width:1" width="552" height="17" x="1" y="85"/><text style="fill:#000" x="11" y="97" font-family="Arial" font-size="12" font-weight="normal">juptyer qtconsole</text><text style="fill:#000" x="181" y="97" font-family="Arial" font-size="12" font-weight="normal">Open qtconsole (4.0 and later)</text><line style="stroke:#000;stroke-width:1" x1="170" x2="170" y1="85" y2="102"/><rect style="fill:#fff;stroke:#000;stroke-width:1" width="552" height="17" x="1" y="102"/><text style="fill:#000" x="11" y="114" font-family="Arial" font-size="12" font-weight="normal">ipython notebook</text><text style="fill:#000" x="181" y="114" font-family="Arial" font-size="12" font-weight="normal">Open IPython Notebook (deprecated)</text><line style="stroke:#000;stroke-width:1" x1="170" x2="170" y1="102" y2="119"/><rect style="fill:#fff;stroke:#000;stroke-width:1" width="552" height="17" x="1" y="119"/><text style="fill:#000" x="11" y="131" font-family="Arial" font-size="12" font-weight="normal">jupyter notebook</text><text style="fill:#000" x="181" y="131" font-family="Arial" font-size="12" font-weight="normal">Open Notebook (browser interface, 4.0 and later)</text><line style="stroke:#000;stroke-width:1" x1="170" x2="170" y1="119" y2="136"/><rect style="fill:#fff;stroke:#000;stroke-width:1" width="552" height="17" x="1" y="136"/><text style="fill:#000" x="11" y="148" font-family="Arial" font-size="12" font-weight="normal">ipython --help-all</text><text style="fill:#000" x="181" y="148" font-family="Arial" font-size="12" font-weight="normal">Show all IPython start flags</text><line style="stroke:#000;stroke-width:1" x1="170" x2="170" y1="136" y2="153"/><rect style="fill:#fff;stroke:#000;stroke-width:1" width="552" height="8" x="1" y="153"/><rect style="fill:#d5e0c5;stroke:#000;stroke-width:1" width="552" height="25" x="1" y="161"/><text style="fill:#000" x="7" y="178" font-family="Arial" font-size="14" font-weight="bold">Within IPython:</text><rect style="fill:#fff;stroke:#000;stroke-width:1" width="552" height="8" x="1" y="186"/><rect style="fill:#fff;stroke:#000;stroke-width:1" width="552" height="31" x="1" y="194"/><text style="fill:#000" x="11" y="206" font-family="Arial" font-size="12" font-weight="normal">obj?, obj??</text><text style="fill:#000" x="181" y="206" font-family="Arial" font-size="12" font-weight="normal">Get help, or more help for object (also works as<tspan x="181" y="220">?obj, ??obj).</tspan></text><line style="stroke:#000;stroke-width:1" x1="170" x2="170" y1="194" y2="225"/><rect style="fill:#fff;stroke:#000;stroke-width:1" width="552" height="17" x="1" y="225"/><text style="fill:#000" x="11" y="237" font-family="Arial" font-size="12" font-weight="normal">?foo.*abc*</text><text style="fill:#000" x="181" y="237" font-family="Arial" font-size="12" font-weight="normal">List names in &apos;foo&apos; containing &apos;abc&apos; in them.</text><line style="stroke:#000;stroke-width:1" x1="170" x2="170" y1="225" y2="242"/><rect style="fill:#fff;stroke:#000;stroke-width:1" width="552" height="17" x="1" y="242"/><text style="fill:#000" x="11" y="254" font-family="Arial" font-size="12" font-weight="normal">%magic</text><text style="fill:#000" x="181" y="254" font-family="Arial" font-size="12" font-weight="normal">Information about IPython&apos;s &apos;magic&apos; % functions.</text><line style="stroke:#000;stroke-width:1" x1="170" x2="170" y1="242" y2="259"/><rect style="fill:#fff;stroke:#000;stroke-width:1" width="552" height="8" x="1" y="259"/><rect style="fill:#fff;stroke:#000;stroke-width:1" width="552" height="45" x="1" y="267"/><text style="fill:#000" x="11" y="279" font-family="Arial" font-size="12" font-weight="normal">Magic functions are prefixed by % or %%, and typically take their arguments<tspan x="11" y="293">without parentheses, quotes or even commas for convenience. Line magics take a</tspan><tspan x="11" y="307">single % and cell magics are prefixed with two %%.</tspan></text><rect style="fill:#fff;stroke:#000;stroke-width:1" width="552" height="8" x="1" y="312"/><rect style="fill:#d5e0c5;stroke:#000;stroke-width:1" width="552" height="25" x="1" y="320"/><text style="fill:#000" x="7" y="337" font-family="Arial" font-size="14" font-weight="bold">Example magic function calls:</text><rect style="fill:#fff;stroke:#000;stroke-width:1" width="552" height="8" x="1" y="345"/><rect style="fill:#fff;stroke:#000;stroke-width:1" width="552" height="17" x="1" y="353"/><text style="fill:#000" x="11" y="365" font-family="Arial" font-size="12" font-weight="normal">%alias d ls -F</text><text style="fill:#000" x="181" y="365" font-family="Arial" font-size="12" font-weight="normal">&apos;d&apos; is now an alias for &apos;ls -F&apos;</text><line style="stroke:#000;stroke-width:1" x1="170" x2="170" y1="353" y2="370"/><rect style="fill:#fff;stroke:#000;stroke-width:1" width="552" height="17" x="1" y="370"/><text style="fill:#000" x="11" y="382" font-family="Arial" font-size="12" font-weight="normal">alias d ls -F</text><text style="fill:#000" x="181" y="382" font-family="Arial" font-size="12" font-weight="normal">Works if &apos;alias&apos; not a python name</text><line style="stroke:#000;stroke-width:1" x1="170" x2="170" y1="370" y2="387"/><rect style="fill:#fff;stroke:#000;stroke-width:1" width="552" height="17" x="1" y="387"/><text style="fill:#000" x="11" y="399" font-family="Arial" font-size="12" font-weight="normal">alist = %alias</text><text style="fill:#000" x="181" y="399" font-family="Arial" font-size="12" font-weight="normal">Get list of aliases to &apos;alist&apos;</text><line style="stroke:#000;stroke-width:1" x1="170" x2="170" y1="387" y2="404"/><rect style="fill:#fff;stroke:#000;stroke-width:1" width="552" height="17" x="1" y="404"/><text style="fill:#000" x="11" y="416" font-family="Arial" font-size="12" font-weight="normal">cd /usr/share</text><text style="fill:#000" x="181" y="416" font-family="Arial" font-size="12" font-weight="normal">Obvious. cd -&lt;tab&gt; to choose from visited dirs.</text><line style="stroke:#000;stroke-width:1" x1="170" x2="170" y1="404" y2="421"/><rect style="fill:#fff;stroke:#000;stroke-width:1" width="552" height="17" x="1" y="421"/><text style="fill:#000" x="11" y="433" font-family="Arial" font-size="12" font-weight="normal">%cd??</text><text style="fill:#000" x="181" y="433" font-family="Arial" font-size="12" font-weight="normal">See help AND source for magic %cd</text><line style="stroke:#000;stroke-width:1" x1="170" x2="170" y1="421" y2="438"/><rect style="fill:#fff;stroke:#000;stroke-width:1" width="552" height="17" x="1" y="438"/><text style="fill:#000" x="11" y="450" font-family="Arial" font-size="12" font-weight="normal">%timeit x=10</text><text style="fill:#000" x="181" y="450" font-family="Arial" font-size="12" font-weight="normal">time the &apos;x=10&apos; statement with high precision.</text><line style="stroke:#000;stroke-width:1" x1="170" x2="170" y1="438" y2="455"/><rect style="fill:#fff;stroke:#000;stroke-width:1" width="552" height="31" x="1" y="455"/><text style="fill:#000" x="11" y="467" font-family="Arial" font-size="12" font-weight="normal">%%timeit x=2**100<tspan x="11" y="481">x**100</tspan></text><text style="fill:#000" x="181" y="467" font-family="Arial" font-size="12" font-weight="normal">time &apos;x**100&apos; with a setup of &apos;x=2**100&apos;; setup code is not<tspan x="181" y="481">counted. This is an example of a cell magic.</tspan></text><line style="stroke:#000;stroke-width:1" x1="170" x2="170" y1="455" y2="486"/><rect style="fill:#fff;stroke:#000;stroke-width:1" width="552" height="8" x="1" y="486"/><rect style="fill:#d5e0c5;stroke:#000;stroke-width:1" width="525" height="25" x="565" y="1"/><text style="fill:#000" x="571" y="18" font-family="Arial" font-size="14" font-weight="bold">System commands:</text><rect style="fill:#fff;stroke:#000;stroke-width:1" width="525" height="8" x="565" y="26"/><rect style="fill:#fff;stroke:#000;stroke-width:1" width="525" height="17" x="565" y="34"/><text style="fill:#000" x="575" y="46" font-family="Arial" font-size="12" font-weight="normal">!cp a.txt b/</text><text style="fill:#000" x="705" y="46" font-family="Arial" font-size="12" font-weight="normal">System command escape, calls os.system()</text><line style="stroke:#000;stroke-width:1" x1="694" x2="694" y1="34" y2="51"/><rect style="fill:#fff;stroke:#000;stroke-width:1" width="525" height="17" x="565" y="51"/><text style="fill:#000" x="575" y="63" font-family="Arial" font-size="12" font-weight="normal">cp a.txt b/</text><text style="fill:#000" x="705" y="63" font-family="Arial" font-size="12" font-weight="normal">after %rehashx, most system commands work without !</text><line style="stroke:#000;stroke-width:1" x1="694" x2="694" y1="51" y2="68"/><rect style="fill:#fff;stroke:#000;stroke-width:1" width="525" height="17" x="565" y="68"/><text style="fill:#000" x="575" y="80" font-family="Arial" font-size="12" font-weight="normal">cp ${f}.txt $bar</text><text style="fill:#000" x="705" y="80" font-family="Arial" font-size="12" font-weight="normal">Variable expansion in magics and system commands</text><line style="stroke:#000;stroke-width:1" x1="694" x2="694" y1="68" y2="85"/><rect style="fill:#fff;stroke:#000;stroke-width:1" width="525" height="17" x="565" y="85"/><text style="fill:#000" x="575" y="97" font-family="Arial" font-size="12" font-weight="normal">files = !ls /usr</text><text style="fill:#000" x="705" y="97" font-family="Arial" font-size="12" font-weight="normal">Capture sytem command output</text><line style="stroke:#000;stroke-width:1" x1="694" x2="694" y1="85" y2="102"/><rect style="fill:#fff;stroke:#000;stroke-width:1" width="525" height="17" x="565" y="102"/><text style="fill:#000" x="575" y="114" font-family="Arial" font-size="12" font-weight="normal">files.s, files.l, files.n</text><text style="fill:#000" x="705" y="114" font-family="Arial" font-size="12" font-weight="normal">&quot;a b c&quot;, [&apos;a&apos;,&apos;b&apos;,&apos;c&apos;], &apos;a\nb\nc&apos;</text><line style="stroke:#000;stroke-width:1" x1="694" x2="694" y1="102" y2="119"/><rect style="fill:#fff;stroke:#000;stroke-width:1" width="525" height="8" x="565" y="119"/><rect style="fill:#d5e0c5;stroke:#000;stroke-width:1" width="525" height="25" x="565" y="127"/><text style="fill:#000" x="571" y="144" font-family="Arial" font-size="14" font-weight="bold">History:</text><rect style="fill:#fff;stroke:#000;stroke-width:1" width="525" height="8" x="565" y="152"/><rect style="fill:#fff;stroke:#000;stroke-width:1" width="525" height="17" x="565" y="160"/><text style="fill:#000" x="575" y="172" font-family="Arial" font-size="12" font-weight="normal">_i, _ii, _iii</text><text style="fill:#000" x="705" y="172" font-family="Arial" font-size="12" font-weight="normal">Previous, next previous, next next previous input</text><line style="stroke:#000;stroke-width:1" x1="694" x2="694" y1="160" y2="177"/><rect style="fill:#fff;stroke:#000;stroke-width:1" width="525" height="17" x="565" y="177"/><text style="fill:#000" x="575" y="189" font-family="Arial" font-size="12" font-weight="normal">_i4, _ih[2:5]</text><text style="fill:#000" x="705" y="189" font-family="Arial" font-size="12" font-weight="normal">Input history line 4, lines 2-4</text><line style="stroke:#000;stroke-width:1" x1="694" x2="694" y1="177" y2="194"/><rect style="fill:#fff;stroke:#000;stroke-width:1" width="525" height="17" x="565" y="194"/><text style="fill:#000" x="575" y="206" font-family="Arial" font-size="12" font-weight="normal">exec _i81</text><text style="fill:#000" x="705" y="206" font-family="Arial" font-size="12" font-weight="normal">Execute input history line #81 again</text><line style="stroke:#000;stroke-width:1" x1="694" x2="694" y1="194" y2="211"/><rect style="fill:#fff;stroke:#000;stroke-width:1" width="525" height="17" x="565" y="211"/><text style="fill:#000" x="575" y="223" font-family="Arial" font-size="12" font-weight="normal">%rep 81</text><text style="fill:#000" x="705" y="223" font-family="Arial" font-size="12" font-weight="normal">Edit input history line #81</text><line style="stroke:#000;stroke-width:1" x1="694" x2="694" y1="211" y2="228"/><rect style="fill:#fff;stroke:#000;stroke-width:1" width="525" height="17" x="565" y="228"/><text style="fill:#000" x="575" y="240" font-family="Arial" font-size="12" font-weight="normal">_, __, ___</text><text style="fill:#000" x="705" y="240" font-family="Arial" font-size="12" font-weight="normal">previous, next previous, next next previous output</text><line style="stroke:#000;stroke-width:1" x1="694" x2="694" y1="228" y2="245"/><rect style="fill:#fff;stroke:#000;stroke-width:1" width="525" height="17" x="565" y="245"/><text style="fill:#000" x="575" y="257" font-family="Arial" font-size="12" font-weight="normal">_dh</text><text style="fill:#000" x="705" y="257" font-family="Arial" font-size="12" font-weight="normal">Directory history</text><line style="stroke:#000;stroke-width:1" x1="694" x2="694" y1="245" y2="262"/><rect style="fill:#fff;stroke:#000;stroke-width:1" width="525" height="17" x="565" y="262"/><text style="fill:#000" x="575" y="274" font-family="Arial" font-size="12" font-weight="normal">_oh</text><text style="fill:#000" x="705" y="274" font-family="Arial" font-size="12" font-weight="normal">Output history</text><line style="stroke:#000;stroke-width:1" x1="694" x2="694" y1="262" y2="279"/><rect style="fill:#fff;stroke:#000;stroke-width:1" width="525" height="17" x="565" y="279"/><text style="fill:#000" x="575" y="291" font-family="Arial" font-size="12" font-weight="normal">%hist</text><text style="fill:#000" x="705" y="291" font-family="Arial" font-size="12" font-weight="normal">Command history of current session.</text><line style="stroke:#000;stroke-width:1" x1="694" x2="694" y1="279" y2="296"/><rect style="fill:#fff;stroke:#000;stroke-width:1" width="525" height="17" x="565" y="296"/><text style="fill:#000" x="575" y="308" font-family="Arial" font-size="12" font-weight="normal">%hist -g foo</text><text style="fill:#000" x="705" y="308" font-family="Arial" font-size="12" font-weight="normal">Search command history of (almost) all sessions for &apos;foo&apos;.</text><line style="stroke:#000;stroke-width:1" x1="694" x2="694" y1="296" y2="313"/><rect style="fill:#fff;stroke:#000;stroke-width:1" width="525" height="17" x="565" y="313"/><text style="fill:#000" x="575" y="325" font-family="Arial" font-size="12" font-weight="normal">%hist -g</text><text style="fill:#000" x="705" y="325" font-family="Arial" font-size="12" font-weight="normal">Command history of (almost) all sessions.</text><line style="stroke:#000;stroke-width:1" x1="694" x2="694" y1="313" y2="330"/><rect style="fill:#fff;stroke:#000;stroke-width:1" width="525" height="17" x="565" y="330"/><text style="fill:#000" x="575" y="342" font-family="Arial" font-size="12" font-weight="normal">%hist 1/2-8</text><text style="fill:#000" x="705" y="342" font-family="Arial" font-size="12" font-weight="normal">Command history containing lines 2-8 of session 1.</text><line style="stroke:#000;stroke-width:1" x1="694" x2="694" y1="330" y2="347"/><rect style="fill:#fff;stroke:#000;stroke-width:1" width="525" height="17" x="565" y="347"/><text style="fill:#000" x="575" y="359" font-family="Arial" font-size="12" font-weight="normal">%hist 1/ ~2/</text><text style="fill:#000" x="705" y="359" font-family="Arial" font-size="12" font-weight="normal">Command history of session 1 and 2 sessions before current.</text><line style="stroke:#000;stroke-width:1" x1="694" x2="694" y1="347" y2="364"/><rect style="fill:#fff;stroke:#000;stroke-width:1" width="525" height="31" x="565" y="364"/><text style="fill:#000" x="575" y="376" font-family="Arial" font-size="12" font-weight="normal">%hist ~8/1-~6/5</text><text style="fill:#000" x="705" y="376" font-family="Arial" font-size="12" font-weight="normal">Command history from line 1 of 8 sessions ago to<tspan x="705" y="390">line 5 of 6 sessions ago.</tspan></text><line style="stroke:#000;stroke-width:1" x1="694" x2="694" y1="364" y2="395"/><rect style="fill:#fff;stroke:#000;stroke-width:1" width="525" height="17" x="565" y="395"/><text style="fill:#000" x="575" y="407" font-family="Arial" font-size="12" font-weight="normal">%edit 0/</text><text style="fill:#000" x="705" y="407" font-family="Arial" font-size="12" font-weight="normal">Open editor to execute code with history of current session.</text><line style="stroke:#000;stroke-width:1" x1="694" x2="694" y1="395" y2="412"/><rect style="fill:#fff;stroke:#000;stroke-width:1" width="525" height="8" x="565" y="412"/><rect style="fill:#d5e0c5;stroke:#000;stroke-width:1" width="525" height="25" x="565" y="420"/><text style="fill:#000" x="571" y="437" font-family="Arial" font-size="14" font-weight="bold">Autocall:</text><rect style="fill:#fff;stroke:#000;stroke-width:1" width="525" height="8" x="565" y="445"/><rect style="fill:#fff;stroke:#000;stroke-width:1" width="525" height="17" x="565" y="453"/><text style="fill:#000" x="575" y="465" font-family="Arial" font-size="12" font-weight="normal">f 1,2</text><text style="fill:#000" x="705" y="465" font-family="Arial" font-size="12" font-weight="normal">f(1,2) # Off by default, enable with %autocall magic.</text><line style="stroke:#000;stroke-width:1" x1="694" x2="694" y1="453" y2="470"/><rect style="fill:#fff;stroke:#000;stroke-width:1" width="525" height="17" x="565" y="470"/><text style="fill:#000" x="575" y="482" font-family="Arial" font-size="12" font-weight="normal">/f 1,2</text><text style="fill:#000" x="705" y="482" font-family="Arial" font-size="12" font-weight="normal">f(1,2) (forced autoparen)</text><line style="stroke:#000;stroke-width:1" x1="694" x2="694" y1="470" y2="487"/><rect style="fill:#fff;stroke:#000;stroke-width:1" width="525" height="17" x="565" y="487"/><text style="fill:#000" x="575" y="499" font-family="Arial" font-size="12" font-weight="normal">,f 1 2</text><text style="fill:#000" x="705" y="499" font-family="Arial" font-size="12" font-weight="normal">f(&quot;1&quot;,&quot;2&quot;)</text><line style="stroke:#000;stroke-width:1" x1="694" x2="694" y1="487" y2="504"/><rect style="fill:#fff;stroke:#000;stroke-width:1" width="525" height="17" x="565" y="504"/><text style="fill:#000" x="575" y="516" font-family="Arial" font-size="12" font-weight="normal">;f 1 2</text><text style="fill:#000" x="705" y="516" font-family="Arial" font-size="12" font-weight="normal">f(&quot;1 2&quot;)</text><line style="stroke:#000;stroke-width:1" x1="694" x2="694" y1="504" y2="521"/><rect style="fill:#fff;stroke:#000;stroke-width:1" width="525" height="8" x="565" y="521"/><rect style="fill:#fff;stroke:#000;stroke-width:1" width="525" height="31" x="565" y="529"/><text style="fill:#000" x="575" y="541" font-family="Arial" font-size="12" font-weight="normal">Remember: TAB completion works in many contexts, not just file names<tspan x="575" y="555">or python names.</tspan></text><rect style="fill:#fff;stroke:#000;stroke-width:1" width="525" height="8" x="565" y="560"/></svg>